<svg width="641" height="633" viewBox="0 0 641 633" fill="none" xmlns="http://www.w3.org/2000/svg">
<path d="M610.324 107.603V504.808H43.931V107.603C43.9267 102.34 44.9601 97.1282 46.9721 92.2654C48.984 87.4026 51.935 82.9842 55.6562 79.263C59.3774 75.5418 63.7958 72.5908 68.6586 70.5789C73.5214 68.567 78.7331 67.5336 83.9957 67.5379H570.259C580.885 67.5379 591.075 71.7589 598.589 79.2725C606.102 86.7861 610.324 96.9767 610.324 107.603Z" stroke="#003049" stroke-width="1.64" stroke-linecap="round" stroke-linejoin="round"/>
<path d="M610.324 107.603V109.388H43.931V107.603C43.9267 102.34 44.9601 97.1282 46.9721 92.2654C48.984 87.4026 51.935 82.9842 55.6562 79.263C59.3774 75.5418 63.7958 72.5908 68.6586 70.5789C73.5214 68.567 78.7331 67.5336 83.9957 67.5379H570.259C580.885 67.5379 591.075 71.7589 598.589 79.2725C606.102 86.7861 610.324 96.9767 610.324 107.603Z" stroke="#003049" stroke-width="1.64" stroke-linecap="round" stroke-linejoin="round"/>
<path d="M533.668 88.4793C533.668 89.9241 533.24 91.3365 532.437 92.5378C531.634 93.7391 530.494 94.6754 529.159 95.2284C527.824 95.7813 526.355 95.9259 524.938 95.6441C523.521 95.3622 522.219 94.6664 521.198 93.6448C520.176 92.6231 519.48 91.3215 519.198 89.9044C518.916 88.4874 519.061 87.0185 519.614 85.6837C520.167 84.3489 521.103 83.208 522.305 82.4053C523.506 81.6026 524.918 81.1741 526.363 81.1741C528.301 81.1741 530.159 81.9438 531.529 83.3138C532.899 84.6837 533.668 86.5418 533.668 88.4793Z" fill="#003049"/>
<path d="M557.434 88.4793C557.434 89.9241 557.006 91.3365 556.203 92.5378C555.401 93.7391 554.26 94.6754 552.925 95.2284C551.59 95.7813 550.121 95.9259 548.704 95.6441C547.287 95.3622 545.985 94.6664 544.964 93.6448C543.942 92.6231 543.246 91.3215 542.964 89.9044C542.683 88.4874 542.827 87.0185 543.38 85.6837C543.933 84.3489 544.869 83.208 546.071 82.4053C547.272 81.6026 548.684 81.1741 550.129 81.1741C552.067 81.1741 553.925 81.9438 555.295 83.3138C556.665 84.6837 557.434 86.5418 557.434 88.4793Z" fill="#F77F00"/>
<path d="M581.201 88.4793C581.201 89.9241 580.772 91.3365 579.969 92.5378C579.167 93.7391 578.026 94.6754 576.691 95.2284C575.356 95.7813 573.887 95.9259 572.47 95.6441C571.053 95.3622 569.752 94.6664 568.73 93.6448C567.708 92.6231 567.012 91.3215 566.731 89.9044C566.449 88.4874 566.593 87.0185 567.146 85.6837C567.699 84.3489 568.636 83.208 569.837 82.4053C571.038 81.6026 572.451 81.1741 573.895 81.1741C575.833 81.1741 577.691 81.9438 579.061 83.3138C580.431 84.6837 581.201 86.5418 581.201 88.4793Z" fill="#D62828"/>
<path d="M56.0089 280.296C54.5479 263.673 127.892 232.212 139.937 256.498L116.106 280.296C116.106 280.296 66.5283 299.874 56.0089 280.296Z" fill="#F77F00"/>
<path d="M91.9502 161.531C81.236 128.414 80.4892 124.356 87.5996 121.791C94.7099 119.226 112.827 156.953 114.872 161.531C122.035 176.022 127.557 191.268 131.333 206.985C134.58 221.66 138.638 255.491 139.32 263.641C142.112 298.023 85.4243 308.445 82.9568 281.725C80.4892 255.004 80.2295 246.335 80.2295 246.335C80.2295 246.335 51.0089 249.128 46.8856 227.245C44.3112 210.132 43.3221 192.819 43.931 175.524C43.931 175.524 -0.549219 168.154 1.04168 156.433C2.63258 144.713 89.645 168.414 89.645 168.414L91.9502 161.531Z" fill="#B25E47"/>
<path d="M43.931 175.524C43.931 175.524 -0.549219 168.154 1.04168 156.433C2.63258 144.713 89.645 168.414 89.645 168.414L91.9502 161.531C81.236 128.414 80.4892 124.356 87.5996 121.791C94.7099 119.226 112.827 156.953 114.872 161.531" stroke="#934735" stroke-width="0.61" stroke-linecap="round" stroke-linejoin="round"/>
<path d="M89.58 168.414C85.814 183.046 86.4579 198.465 91.4307 212.732" stroke="#934735" stroke-width="0.61" stroke-linecap="round" stroke-linejoin="round"/>
<path d="M68.7361 143.057C75.7166 146.693 81.2036 147.472 83.2815 137.537C85.3594 127.602 75.7166 127.278 72.4698 127.797C67.5023 128.609 65.7491 141.466 68.7361 143.057Z" fill="#683F1D"/>
<path d="M70.1321 140.46C68.5737 145.784 67.4374 152.44 67.4698 152.245C68.6386 152.83 75.3269 155.135 76.3659 152.83C77.4114 148.767 78.1494 144.632 78.5736 140.46H70.1321Z" fill="#683F1D"/>
<path d="M63.8335 155.557C60.1647 171.79 41.3337 261.27 40.7168 264.192C40.0999 267.115 40.9116 280.621 42.0804 281.14C43.2492 281.66 49.7427 271.985 52.1777 267.082C54.6128 262.179 75.7166 164.096 77.0477 159.518C80.2945 148.381 66.2361 144.907 63.8335 155.557Z" fill="#683F1D"/>
<path d="M47.2427 206.303C38.1194 208.414 35.522 217.115 42.2752 222.894C49.5154 229.095 67.34 226.141 68.2491 218.381C69.1582 210.621 54.8401 204.55 47.2427 206.303Z" fill="#B25E47" stroke="#934735" stroke-width="0.61" stroke-linecap="round" stroke-linejoin="round"/>
<path d="M46.4959 192.018C37.1453 190.654 34.8401 199.907 41.5284 207.212C48.2167 214.517 70.262 216.011 71.4957 207.472C72.7295 198.933 52.1777 192.862 46.4959 192.018Z" fill="#B25E47" stroke="#934735" stroke-width="0.61" stroke-linecap="round" stroke-linejoin="round"/>
<path d="M38.1519 176.044C49.905 173.252 75.3594 190.524 74.3529 195.881C73.1192 202.602 61.1387 203.641 44.0934 196.401C28.1195 189.647 32.3727 177.407 38.1519 176.044Z" fill="#B25E47" stroke="#934735" stroke-width="0.61" stroke-linecap="round" stroke-linejoin="round"/>
<path d="M604.252 305.686C567.759 303.9 537.532 336.854 528.181 374.679C527.889 375.718 527.662 376.887 527.434 378.12C526.429 383.945 525.735 389.819 525.356 395.718C521.46 445.652 525.129 545.067 525.356 547.275C525.519 548.087 499.383 547.275 463.506 545.587C450.26 544.97 435.617 544.288 420.422 543.509C343.02 539.71 251.105 534.58 251.105 534.58L245.553 472.535C245.553 472.535 233.962 492.016 194.385 530.36C154.807 568.703 91.4631 547.275 98.2813 499.191C102.534 468.996 120.392 446.886 141.982 409.938C148.476 398.477 155.683 385.62 162.794 370.653C172.242 350.75 181.463 331.692 190.261 314.582C194.125 307.017 197.924 299.842 201.592 293.056C215.488 267.439 227.956 248.024 237.988 238.965C268.15 211.693 332.728 227.407 349.936 232.926C375.617 241.274 402.263 246.293 429.221 247.861C467.402 250.524 525.356 266.985 556.071 277.666C573.823 283.613 590.166 293.138 604.09 305.653L604.252 305.686Z" fill="#D62828"/>
<path d="M629.934 362.374C596.525 328.835 545.779 314.192 494.87 359.581C435.649 412.341 390.195 421.497 323.572 344.452C275.391 288.738 258.637 274.517 201.722 293.056C215.618 267.439 228.086 248.024 238.118 238.965C268.28 211.693 332.858 227.407 350.065 232.926C375.747 241.274 402.392 246.293 429.351 247.861C467.532 250.524 525.486 266.985 556.201 277.666C573.953 283.613 590.296 293.138 604.22 305.653C617.369 316.173 625.161 337.244 629.934 362.374Z" fill="#F77F00"/>
<path d="M189.352 458.25C168.151 481.334 148.93 431.237 142.047 409.938C148.541 398.477 155.748 385.62 162.859 370.653C172.307 350.75 181.528 331.692 190.326 314.582C206.008 338.575 184.807 360.555 183.313 371.432C179.612 400.458 219.936 425.101 189.352 458.25Z" fill="#F77F00"/>
<path d="M56.0089 280.296C88.8658 287.212 139.937 256.498 139.937 256.498C139.937 256.498 168.086 382.114 175.424 409.971C182.761 437.828 229.774 546.95 138.184 551.431C79.4178 554.288 75.4568 442.568 72.0153 405.782C68.5737 368.997 56.0089 280.296 56.0089 280.296Z" fill="#D62828"/>
<path d="M77.7944 294.647C103.086 296.433 131.268 279.42 131.268 279.42" stroke="#D62828" stroke-width="0.61" stroke-linecap="round" stroke-linejoin="round"/>
<path d="M139.937 256.498C139.937 256.498 168.086 382.114 175.424 409.971C179.45 425.166 195.261 464.548 193.93 497.925" stroke="#D62828" stroke-width="0.61" stroke-linecap="round" stroke-linejoin="round"/>
<path d="M323.572 253.446C339.806 283.868 383.442 313.088 435.909 272.731C435.909 272.731 441.558 255.978 440.974 255.978C440.39 255.978 331.007 242.732 331.007 242.732L323.572 253.446Z" fill="#D62828"/>
<path d="M366.754 215.719C353.247 212.667 333.637 216.076 320.131 236.822C306.624 257.569 304.903 274.712 305.683 274.517C306.462 274.322 326.819 261.53 336.137 262.342C346.188 264.05 356.122 266.392 365.877 269.355L366.754 215.719Z" fill="#FCBF49"/>
<path d="M427.662 221.79C427.662 221.79 457.532 221.985 461.558 242.926C465.584 263.868 454.513 288.965 440.974 300.588C427.435 312.212 434.903 283.835 386.364 270.524L427.662 221.79Z" fill="#FCBF49"/>
<path d="M442.24 246.271C442.24 246.271 425.649 271.498 388.669 272.082C351.689 272.666 344.579 250.589 344.579 250.589C348.572 240.589 353.41 219.258 356.494 204.29C358.442 194.842 359.741 188.057 359.741 188.057C359.741 188.057 365.845 128.836 429.351 132.408L430.422 142.148L442.24 246.271Z" fill="#B25E47"/>
<path d="M356.494 204.745C358.442 195.297 359.741 188.511 359.741 188.511L395.877 171.563C395.877 171.563 401.591 212.829 356.494 204.745Z" fill="#914839"/>
<path d="M245.65 472.535C240.553 414.094 240.553 366.952 240.553 366.952" stroke="#D62828" stroke-width="0.61" stroke-linecap="round" stroke-linejoin="round"/>
<path d="M486.915 614.385C483.819 613.251 480.866 611.758 478.117 609.937C459.61 597.729 458.019 573.931 463.636 545.587C467.987 523.866 476.623 499.483 484.967 475.587C494.513 448.347 503.863 421.756 506.493 400.49C506.883 397.503 507.11 394.646 507.207 391.919C507.688 375.585 510.677 359.422 516.071 343.997C531.331 301.043 564.772 273.998 604.22 305.653C617.207 316.14 625.129 337.211 629.901 362.341C631.622 371.302 632.953 380.783 634.057 390.458C637.693 423.347 638.18 458.639 639.804 485.035C647.758 612.632 617.207 663.541 486.915 614.385Z" fill="#D62828"/>
<path d="M629.934 362.374C601.2 333.51 559.545 318.64 516.071 343.997C531.33 301.043 564.772 273.998 604.22 305.653C617.369 316.173 625.161 337.244 629.934 362.374Z" fill="#D62828"/>
<path d="M525.486 547.275C525.649 548.087 499.513 547.275 463.636 545.587C450.389 544.97 435.747 544.288 420.552 543.509C394.578 531.788 378.344 514.84 392.208 490.555C429.935 424.549 499.35 516.009 502.857 450.555C505.292 405.718 516.168 396.01 525.357 395.718C521.46 445.652 525.129 545.002 525.486 547.275Z" fill="#D62828"/>
<path d="M534.35 355.198C529.191 368.133 526.154 381.815 525.357 395.718C521.883 445.685 525.129 545.067 525.357 547.275" stroke="#D62828" stroke-width="0.61" stroke-linecap="round" stroke-linejoin="round"/>
<path d="M486.915 614.385C483.819 613.251 480.866 611.758 478.117 609.937C507.954 616.43 552.564 622.112 572.272 605.327C603.278 578.931 583.57 545.1 600.713 526.463C617.856 507.827 642.564 501.821 634.09 390.588C637.726 423.477 638.213 458.769 639.836 485.165C647.758 612.632 617.207 663.541 486.915 614.385Z" fill="#D62828"/>
<path d="M412.24 390.523C416.981 369.192 390.228 370.166 390.228 370.166C392.598 350.491 366.559 345.069 360.552 364.224C339.416 357.731 332.728 364.224 329.644 375.361L412.24 390.523Z" fill="#EAE2B7"/>
<path d="M376.169 372.211C379.666 372.211 382.5 369.377 382.5 365.88C382.5 362.384 379.666 359.549 376.169 359.549C372.673 359.549 369.838 362.384 369.838 365.88C369.838 369.377 372.673 372.211 376.169 372.211Z" fill="#F9F9F9" stroke="#F77F00" stroke-width="0.82" stroke-linecap="round" stroke-linejoin="round"/>
<path d="M289.449 359.581L249.969 573.671L406.753 605.327L448.864 390.945L289.449 359.581Z" fill="#F9F9F9" stroke="#F77F00" stroke-width="0.82" stroke-linecap="round" stroke-linejoin="round"/>
<path d="M337.76 501.431C329.741 522.275 329.286 544.158 332.955 551.496C332.955 551.496 347.923 554.256 362.858 513.704L337.76 501.431Z" fill="#F77F00"/>
<path d="M358.182 461.237C322.306 448.932 305.163 441.464 298.702 439.711C292.241 437.958 268.897 436.01 265.164 439.711C263.516 441.483 262.39 443.676 261.909 446.048C261.427 448.419 261.61 450.878 262.436 453.152C263.67 458.12 259.709 461.724 259.189 466.756C258.67 471.789 264.676 473.25 263.41 478.25C262.144 483.25 258.215 488.672 260.943 494.159C263.67 499.646 258.215 505.327 263.41 512.048C268.605 518.769 321.494 521.983 333.085 519.515L355.812 529.678C355.812 529.678 395.909 488.347 358.182 461.237Z" fill="#B25E47"/>
<path d="M298.572 439.613C292.079 437.893 268.767 435.912 265.034 439.613C263.386 441.386 262.26 443.579 261.779 445.95C261.297 448.322 261.48 450.78 262.306 453.055C263.54 458.022 259.579 461.626 259.06 466.659C258.54 471.691 264.547 473.152 263.28 478.152C262.014 483.152 258.085 488.574 260.813 494.061C263.54 499.548 258.086 505.23 263.28 511.951" stroke="#934735" stroke-width="0.61" stroke-linecap="round" stroke-linejoin="round"/>
<path d="M572.467 605.327C563.149 622.177 539.772 630.326 495.454 616.917C483.474 613.314 471.915 609.547 460.876 605.749C442.565 599.482 425.682 593.054 410.552 586.918C384.165 576.423 358.331 564.59 333.15 551.463C339.789 544.084 345.144 535.645 348.994 526.496C351.414 521.066 353.4 515.453 354.936 509.71C359.074 493.826 360.176 477.303 358.182 461.009C364.221 462.828 370.715 464.667 377.663 466.529C394.189 471.042 412.695 475.75 431.461 480.685C487.694 495.49 546.168 512.47 560.421 533.574C561.72 535.489 562.954 537.47 564.123 539.483C564.577 540.262 565.064 541.074 565.486 541.885C565.618 542.095 565.737 542.312 565.843 542.535C566.363 543.476 566.882 544.483 567.369 545.457C568.257 547.167 569.068 548.888 569.804 550.619C577.954 569.937 580.324 590.846 572.467 605.327Z" fill="#F77F00"/>
<path d="M358.182 461.237C422.565 480.717 539.317 502.762 560.291 533.801C563.916 539.195 567.056 544.899 569.674 550.846" stroke="#F77F00" stroke-width="0.61" stroke-linecap="round" stroke-linejoin="round"/>
<path d="M377.403 466.659C381.396 507.016 360.552 545.749 360.552 545.749" stroke="#F77F00" stroke-width="0.61" stroke-linecap="round" stroke-linejoin="round"/>
<path d="M572.272 605.327C562.954 622.177 539.577 630.326 495.259 616.917C483.279 613.314 471.721 609.547 460.682 605.749C486.623 612.599 548.116 625.911 572.272 605.327Z" fill="#F77F00"/>
<path d="M429.351 132.765L430.455 142.505C407.955 177.537 377.241 188.511 359.741 188.511C330.845 181.303 320.975 155.297 319.286 127.408C318.852 120.727 318.831 114.026 319.221 107.343C320.581 88.4159 323.844 69.6741 328.962 51.4016C328.962 51.4016 415.747 11.0122 421.753 92.0831C421.753 92.0831 440.357 88.8364 443.831 109.388C446.526 126.466 429.351 132.765 429.351 132.765Z" fill="#B25E47"/>
<path d="M333.15 107.44C335.069 107.44 336.624 105.885 336.624 103.966C336.624 102.048 335.069 100.492 333.15 100.492C331.231 100.492 329.676 102.048 329.676 103.966C329.676 105.885 331.231 107.44 333.15 107.44Z" fill="#683F1D"/>
<path d="M357.306 103.025C359.224 103.025 360.78 101.469 360.78 99.5507C360.78 97.632 359.224 96.0767 357.306 96.0767C355.387 96.0767 353.832 97.632 353.832 99.5507C353.832 101.469 355.387 103.025 357.306 103.025Z" fill="#683F1D"/>
<path d="M352.014 80.9144C352.403 85.6221 368.572 87.4078 369.481 84.778C370.877 80.7196 351.169 69.8106 352.014 80.9144Z" fill="#604730"/>
<path d="M321.202 87.8624C321.202 90.4273 338.799 91.6286 338.15 82.5378C337.728 76.0768 321.592 80.8495 321.202 87.8624Z" fill="#604730"/>
<path d="M417.045 117.7C424.286 106.986 435.747 108.154 436.948 110.2" stroke="#934735" stroke-width="0.61" stroke-linecap="round" stroke-linejoin="round"/>
<path d="M420.13 114.031C430.812 107.765 436.623 121.823 423.117 121.823" stroke="#934735" stroke-width="0.61" stroke-linecap="round" stroke-linejoin="round"/>
<path d="M342.5 93.9013C345.422 99.5831 345.195 102.992 343.247 106.661C341.299 110.33 335.423 118.609 338.507 125.947" stroke="#934735" stroke-width="0.61" stroke-linecap="round" stroke-linejoin="round"/>
<path d="M361.429 127.213C358.864 136.011 348.442 141.531 343.41 140.395C343.41 140.395 348.442 154.063 357.306 150.557C367.5 146.563 361.429 127.213 361.429 127.213Z" fill="white" stroke="#934735" stroke-width="0.61" stroke-linecap="round" stroke-linejoin="round"/>
<path d="M415.455 130.232C417.461 131.612 419.736 132.55 422.131 132.987C424.526 133.423 426.987 133.348 429.351 132.765" stroke="#934735" stroke-width="0.61" stroke-linecap="round" stroke-linejoin="round"/>
<path d="M446.98 83.7066C456.98 97.4078 441.98 103.187 441.98 103.187C440.448 100.992 438.439 99.1716 436.104 97.8624C434.628 96.9952 432.978 96.4678 431.272 96.3182C429.567 96.1686 427.85 96.4007 426.246 96.9977C424.641 97.5946 423.19 98.5414 421.998 99.7692C420.805 100.997 419.901 102.475 419.351 104.096C398.929 104.518 407.727 88.5767 407.727 88.5767C389.416 95.8818 388.831 77.1482 396.721 68.6742C382.435 84.7131 364.254 68.6742 367.241 54.2263C362.176 70.0054 344.156 70.4599 346.559 57.473C345.011 60.1718 343.135 62.669 340.975 64.908C328.572 77.343 317.501 64.0314 322.143 54.1938C303.572 71.8885 295.52 52.0834 313.247 41.4341C299.222 29.9407 315.78 13.5772 327.111 21.9537C324.546 1.59672 345.52 0.687637 354.741 12.5707C358.377 -9.79931 386.364 2.4084 387.5 13.0252C408.117 -1.39027 424.091 9.25901 422.013 32.668C430.357 21.5317 448.214 28.0576 441.493 56.6288C458.474 55.3951 461.428 76.7261 446.98 83.7066Z" fill="#604730"/>
<path d="M436.104 97.8624C434.628 96.9953 432.978 96.4678 431.272 96.3182C429.567 96.1686 427.85 96.4007 426.246 96.9977C424.641 97.5946 423.19 98.5414 421.998 99.7692C420.805 100.997 419.901 102.475 419.351 104.096C398.929 104.518 407.727 88.5767 407.727 88.5767C389.416 95.8818 388.831 77.1482 396.721 68.6742C382.435 84.7131 364.254 68.6742 367.241 54.2263C362.176 70.0054 344.156 70.4599 346.559 57.473C345.011 60.1718 343.135 62.669 340.975 64.908C335.975 49.7458 347.176 29.7459 364.286 38.9341C366.526 26.7589 394.513 18.8693 394.351 49.7133C404.708 35.2329 428.149 40.2004 417.078 67.7651C425.779 60.8821 445.844 72.1807 436.104 97.8624Z" fill="#473526"/>
<path d="M398.539 103.219C401.007 108.154 396.364 115.492 388.15 119.615C379.935 123.739 371.267 122.862 368.669 118.089C366.072 113.317 370.844 105.817 379.059 101.693C387.273 97.5701 396.039 98.2844 398.539 103.219Z" fill="#A0503D"/>
<path d="M330.065 122.018C328.799 125.525 324.514 127.408 319.221 127.31C318.813 120.661 318.813 113.992 319.221 107.343C327.078 110.784 331.884 117.083 330.065 122.018Z" fill="#A0503D"/>
</svg>
